# Blender v3.2.1 OBJ File: ''
# www.blender.org
mtllib square.mtl
o Plane
v -1.000000 -1.000000 -0.000000
v 1.000000 -1.000000 -0.000000
v -1.000000 1.000000 0.000000
v 1.000000 1.000000 0.000000
v 0.000000 -1.000000 -0.000000
v 0.000000 1.000000 0.000000
v -1.000000 0.000000 0.000000
v 1.000000 0.000000 0.000000
v 0.500000 -1.000000 -0.000000
v 0.500000 1.000000 0.000000
v 0.877497 0.000000 -0.001227
v -0.500000 1.000000 0.000000
v -0.500000 -1.000000 -0.000000
v -0.877497 0.000000 -0.001227
v 1.000000 0.500000 0.000000
v 0.000000 0.877497 -0.001227
v -1.000000 0.500000 0.000000
v 0.877497 0.877497 -0.001227
v -0.877497 0.877497 -0.001227
v -1.000000 -0.500000 -0.000000
v 1.000000 -0.500000 -0.000000
v 0.000000 -0.877497 -0.001227
v 0.877497 -0.877497 -0.001227
v -0.877497 -0.877497 -0.001227
v -1.000000 -0.500000 -0.032945
v -1.000000 -1.000000 -0.032946
v 0.500000 -1.000000 -0.032946
v 1.000000 -1.000000 -0.032946
v 1.000000 0.500000 -0.032945
v 1.000000 1.000000 -0.032945
v -0.500000 1.000000 -0.032945
v -1.000000 1.000000 -0.032945
v -0.500000 -1.000000 -0.032946
v 0.000000 -1.000000 -0.032946
v 0.500000 1.000000 -0.032945
v 0.000000 1.000000 -0.032945
v 0.000000 0.877497 -0.031718
v -1.000000 0.500000 -0.032945
v -1.000000 0.000000 -0.032945
v 1.000000 -0.500000 -0.032945
v 1.000000 0.000000 -0.032945
v -0.877497 0.000000 -0.031718
v 0.877497 0.000000 -0.031718
v 0.877497 -0.877497 -0.031719
v 0.877497 0.877497 -0.031718
v -0.877497 -0.877497 -0.031719
v -0.877497 0.877497 -0.031718
v 0.000000 -0.877497 -0.031719
vt 0.750000 0.750000
vt 1.000000 1.000000
vt 1.000000 0.750000
vt 0.250000 1.000000
vt 0.500000 0.750000
vt 0.250000 0.750000
vt 0.750000 0.500000
vt 1.000000 0.250000
vt 0.750000 0.250000
vt 0.750000 1.000000
vt 0.000000 0.250000
vt 0.250000 0.500000
vt 0.250000 0.250000
vt 0.000000 1.000000
vt 0.000000 0.750000
vt 0.000000 0.500000
vt 1.000000 0.500000
vt 0.000000 0.000000
vt 0.250000 0.000000
vt 0.500000 0.250000
vt 0.750000 0.000000
vt 0.500000 0.000000
vt 1.000000 0.000000
vt 0.750000 0.750000
vt 1.000000 1.000000
vt 0.750000 1.000000
vt 0.500000 0.750000
vt 0.250000 1.000000
vt 0.250000 0.750000
vt 1.000000 0.250000
vt 0.750000 0.500000
vt 0.750000 0.250000
vt 0.500000 1.000000
vt 0.000000 0.250000
vt 0.250000 0.500000
vt 0.000000 0.500000
vt 0.000000 1.000000
vt 0.000000 0.750000
vt 1.000000 0.750000
vt 0.000000 0.000000
vt 0.250000 0.250000
vt 0.750000 0.000000
vt 0.500000 0.250000
vt 0.500000 0.000000
vt 1.000000 0.000000
vt 0.250000 0.000000
vt 0.500000 1.000000
vt 1.000000 0.500000
vn 0.0100 0.0000 -0.9999
vn 0.0000 0.0100 -0.9999
vn -0.0100 0.0000 -0.9999
vn 0.0000 -0.0100 -0.9999
vn 0.0000 0.0100 0.9999
vn 0.0100 -0.0000 0.9999
vn -0.0100 -0.0000 0.9999
vn 0.0000 -0.0100 0.9999
vn 1.0000 0.0000 0.0000
vn -1.0000 0.0000 0.0000
vn 0.0000 -1.0000 0.0000
vn 0.0000 1.0000 0.0000
usemtl Material.001
s off
f 18/1/1 4/2/1 15/3/1
f 12/4/2 16/5/2 19/6/2
f 11/7/1 21/8/1 23/9/1
f 16/5/2 10/10/2 18/1/2
f 20/11/3 14/12/3 24/13/3
f 3/14/3 19/6/3 17/15/3
f 17/15/3 14/12/3 7/16/3
f 11/7/1 15/3/1 8/17/1
f 1/18/4 24/13/4 13/19/4
f 22/20/4 9/21/4 5/22/4
f 23/9/4 2/23/4 9/21/4
f 13/19/4 22/20/4 5/22/4
f 45/24/5 30/25/5 35/26/5
f 37/27/5 31/28/5 47/29/5
f 40/30/6 43/31/6 44/32/6
f 37/27/5 35/26/5 36/33/5
f 25/34/7 42/35/7 39/36/7
f 47/29/7 32/37/7 38/38/7
f 42/35/7 38/38/7 39/36/7
f 43/31/6 29/39/6 45/24/6
f 26/40/7 46/41/7 25/34/7
f 27/42/8 48/43/8 34/44/8
f 28/45/8 44/32/8 27/42/8
f 33/46/8 48/43/8 46/41/8
f 23/9/9 43/31/9 11/7/9
f 21/8/10 28/45/10 2/23/10
f 11/7/9 45/24/9 18/1/9
f 7/16/9 38/38/9 17/15/9
f 19/6/10 42/35/10 14/12/10
f 1/18/9 25/34/9 20/11/9
f 12/4/11 36/33/11 6/47/11
f 8/17/10 40/30/10 21/8/10
f 2/23/12 27/42/12 9/21/12
f 13/19/12 26/40/12 1/18/12
f 18/1/12 37/27/12 16/5/12
f 4/2/10 29/39/10 15/3/10
f 14/12/10 46/41/10 24/13/10
f 9/21/12 34/44/12 5/22/12
f 16/5/12 47/29/12 19/6/12
f 3/14/11 31/28/11 12/4/11
f 22/20/11 44/32/11 23/9/11
f 10/10/11 30/25/11 4/2/11
f 5/22/12 33/46/12 13/19/12
f 15/3/10 41/48/10 8/17/10
f 20/11/9 39/36/9 7/16/9
f 6/47/11 35/26/11 10/10/11
f 17/15/9 32/37/9 3/14/9
f 24/13/11 48/43/11 22/20/11
f 18/1/2 10/10/2 4/2/2
f 12/4/2 6/47/2 16/5/2
f 11/7/1 8/17/1 21/8/1
f 16/5/2 6/47/2 10/10/2
f 20/11/3 7/16/3 14/12/3
f 3/14/2 12/4/2 19/6/2
f 17/15/3 19/6/3 14/12/3
f 11/7/1 18/1/1 15/3/1
f 1/18/3 20/11/3 24/13/3
f 22/20/4 23/9/4 9/21/4
f 23/9/1 21/8/1 2/23/1
f 13/19/4 24/13/4 22/20/4
f 45/24/6 29/39/6 30/25/6
f 37/27/5 36/33/5 31/28/5
f 40/30/6 41/48/6 43/31/6
f 37/27/5 45/24/5 35/26/5
f 25/34/7 46/41/7 42/35/7
f 47/29/5 31/28/5 32/37/5
f 42/35/7 47/29/7 38/38/7
f 43/31/6 41/48/6 29/39/6
f 26/40/8 33/46/8 46/41/8
f 27/42/8 44/32/8 48/43/8
f 28/45/6 40/30/6 44/32/6
f 33/46/8 34/44/8 48/43/8
f 23/9/9 44/32/9 43/31/9
f 21/8/10 40/30/10 28/45/10
f 11/7/9 43/31/9 45/24/9
f 7/16/9 39/36/9 38/38/9
f 19/6/10 47/29/10 42/35/10
f 1/18/9 26/40/9 25/34/9
f 12/4/11 31/28/11 36/33/11
f 8/17/10 41/48/10 40/30/10
f 2/23/12 28/45/12 27/42/12
f 13/19/12 33/46/12 26/40/12
f 18/1/12 45/24/12 37/27/12
f 4/2/10 30/25/10 29/39/10
f 14/12/10 42/35/10 46/41/10
f 9/21/12 27/42/12 34/44/12
f 16/5/12 37/27/12 47/29/12
f 3/14/11 32/37/11 31/28/11
f 22/20/11 48/43/11 44/32/11
f 10/10/11 35/26/11 30/25/11
f 5/22/12 34/44/12 33/46/12
f 15/3/10 29/39/10 41/48/10
f 20/11/9 25/34/9 39/36/9
f 6/47/11 36/33/11 35/26/11
f 17/15/9 38/38/9 32/37/9
f 24/13/11 46/41/11 48/43/11
